#!OML:ASF C:\Vicon Data\Big\jianyuan-12\jianyuan\Session 1\Capture.male.ASF
:FULLY-SPECIFIED
:DEGREES
167
root -10.811848 16.871382 -11.438384 1.777643 -27.679756 12.691195
lowerback -11.171792 -0.759017 -10.072545 
upperback 1.388999 0.698631 -3.360045 
thorax 7.741314 0.008685 2.200642 
lowerneck -1.679038 -6.959880 -6.174708 
upperneck 8.442105 -9.717382 8.343019 
head 3.496551 -4.691339 3.134828 
rclavicle 0.000000 0.000000 
rhumerus -40.086133 -31.309995 -75.451155 
rradius 33.576277 
rwrist 38.671970 
rhand -22.378545 -4.175803 
rfingers 0.000000 
rthumb 4.043232 -34.117224 
lclavicle 0.000000 0.000000 
lhumerus -45.572517 46.623949 59.389681 
lradius 23.637987 
lwrist -64.579374 
lhand -10.237079 3.697949 
lfingers 0.000000 
lthumb 15.755295 33.076720 
rfemur -13.643425 -8.491943 8.071185 
rtibia 64.118692 
rfoot -1.301081 -4.862013 
rtoes -19.174351 
lfemur -22.081700 -0.993710 -31.964168 
ltibia 22.918674 
lfoot -13.845365 1.405833 
ltoes -9.220592 
168
root -10.831002 16.875876 -11.380546 1.752683 -27.835584 12.680235
lowerback -11.181967 -0.800106 -10.044527 
upperback 1.425319 0.643918 -3.355599 
thorax 7.792963 -0.020074 2.179613 
lowerneck -1.665544 -6.899229 -6.248839 
upperneck 8.321663 -9.631454 8.400689 
head 3.458021 -4.651723 3.170737 
rclavicle 0.000000 0.000000 
rhumerus -40.091777 -31.143152 -75.579808 
rradius 33.617717 
rwrist 38.587809 
rhand -22.351262 -4.154677 
rfingers 0.000000 
rthumb 4.069537 -34.095568 
lclavicle 0.000000 0.000000 
lhumerus -44.959151 46.586938 59.855029 
lradius 23.616598 
lwrist -64.459908 
lhand -10.342578 3.655622 
lfingers 0.000000 
lthumb 15.653712 33.042334 
rfemur -14.415464 -8.671974 8.086924 
rtibia 65.120207 
rfoot -2.219021 -5.529629 
rtoes -18.572157 
lfemur -21.761765 -0.946239 -31.973516 
ltibia 22.815523 
lfoot -14.076083 1.450227 
ltoes -9.289707 
169
root -10.849819 16.881276 -11.324593 1.763470 -27.897636 12.639760
lowerback -11.159331 -0.885091 -9.997592 
upperback 1.440443 0.522060 -3.352811 
thorax 7.810179 -0.078413 2.134812 
lowerneck -1.663460 -6.836925 -6.213902 
upperneck 8.243343 -9.538562 8.327778 
head 3.422011 -4.609150 3.149511 
rclavicle 0.000000 0.000000 
rhumerus -40.089888 -30.978362 -75.711685 
rradius 33.616454 
rwrist 38.650702 
rhand -22.238847 -4.319549 
rfingers 0.000000 
rthumb 4.178088 -34.258340 
lclavicle 0.000000 0.000000 
lhumerus -44.482739 46.670331 60.156554 
lradius 23.619474 
lwrist -64.663856 
lhand -10.450349 3.589788 
lfingers 0.000000 
lthumb 15.549929 32.984576 
rfemur -15.196599 -8.890511 8.155734 
rtibia 66.074290 
rfoot -3.268353 -6.298279 
rtoes -18.186276 
lfemur -21.477402 -0.964541 -31.958146 
ltibia 22.723529 
lfoot -14.277583 1.480004 
ltoes -9.297854 
170
root -10.866335 16.884545 -11.269910 1.627213 -27.972988 12.646900
lowerback -11.001253 -0.948767 -10.029529 
upperback 1.496935 0.420704 -3.309331 
thorax 7.791953 -0.131278 2.180730 
lowerneck -1.729139 -6.789795 -6.285298 
upperneck 8.210661 -9.461700 8.254459 
head 3.417244 -4.575430 3.140793 
rclavicle 0.000000 0.000000 
rhumerus -40.070135 -31.025479 -75.611154 
rradius 33.446702 
rwrist 39.251313 
rhand -22.220490 -4.235377 
rfingers 0.000000 
rthumb 4.195851 -34.173792 
lclavicle 0.000000 0.000000 
lhumerus -43.911603 46.657836 60.669541 
lradius 23.678898 
lwrist -64.568710 
lhand -10.441714 3.545956 
lfingers 0.000000 
lthumb 15.558309 32.940141 
rfemur -15.850982 -9.138539 8.155943 
rtibia 66.983684 
rfoot -4.286198 -7.056417 
rtoes -18.409845 
lfemur -21.069134 -0.999600 -31.988194 
ltibia 22.638516 
lfoot -14.504527 1.560180 
ltoes -9.249448 
171
root -10.883549 16.889135 -11.215048 1.500576 -28.066174 12.662733
lowerback -10.864531 -1.003439 -10.081649 
upperback 1.556074 0.337086 -3.263610 
thorax 7.787137 -0.177110 2.243426 
lowerneck -1.780217 -6.725822 -6.344845 
upperneck 8.139293 -9.360828 8.180036 
head 3.396047 -4.530452 3.132245 
rclavicle 0.000000 0.000000 
rhumerus -40.051469 -30.862912 -75.636446 
rradius 33.434425 
rwrist 39.625698 
rhand -22.254043 -4.272857 
rfingers 0.000000 
rthumb 4.163490 -34.211914 
lclavicle 0.000000 0.000000 
lhumerus -43.229063 46.552883 61.327366 
lradius 23.750422 
lwrist -64.246695 
lhand -10.478716 3.653582 
lfingers 0.000000 
lthumb 15.522668 33.050541 
rfemur -16.532087 -9.358939 8.146104 
rtibia 67.826960 
rfoot -5.366471 -7.667220 
rtoes -18.136192 
lfemur -20.657512 -1.095379 -32.016011 
ltibia 22.522708 
lfoot -14.745167 1.701424 
ltoes -9.182605 
